<svg xmlns="http://www.w3.org/2000/svg" xmlns:xlink="http://www.w3.org/1999/xlink" viewBox="0 0 35.989 29.064"><defs><style>.a{stroke:rgba(112,112,112,0.2);fill:url(#a);}.b{stroke:#fff;fill:url(#b);}.c,.d{stroke:none;}.e{fill:none;}</style><linearGradient id="a" x1="0.5" y1="0.087" x2="0.5" y2="0.905" gradientUnits="objectBoundingBox"><stop offset="0" stop-color="#fff"/><stop offset="1"/></linearGradient><linearGradient id="b" x1="0.5" y1="0.087" x2="0.5" y2="0.905" gradientUnits="objectBoundingBox"><stop offset="0" stop-color="#fff"/><stop offset="1" stop-color="#fff"/></linearGradient></defs><g transform="translate(1.576 0)"><path class="c" d="M 5.589025974273682 28.35482025146484 L 9.162832260131836 25.66342163085938 L 9.920331954956055 25.09295272827148 L 9.021681785583496 24.79018211364746 C 8.997382164001465 24.7819709777832 6.539571762084961 23.93994140625 4.072412014007568 22.14144134521484 C 2.639121770858765 21.09661102294922 1.482761859893799 19.93760108947754 0.6354518532752991 18.69661140441895 C -0.4064821302890778 17.17057609558105 -0.9822656512260437 15.5114688873291 -1.07606303691864 13.76529216766357 C -0.9461027979850769 9.751476287841797 0.9659938812255859 6.362705707550049 4.454521656036377 3.964101791381836 C 7.703441619873047 1.730241894721985 12.14025211334229 0.5000019073486328 16.94764137268066 0.5000019073486328 C 26.3022518157959 0.5000019073486328 33.91278076171875 6.453161716461182 33.91278076171875 13.77059173583984 C 33.91278076171875 15.51559162139893 33.47267150878906 17.15641212463379 32.60468292236328 18.6474723815918 C 31.78523254394531 20.05516242980957 30.57951164245605 21.34214210510254 29.02103233337402 22.47267150878906 C 26.0906810760498 24.59836196899414 21.99868202209473 26.12812232971191 17.18741226196289 26.89656257629395 L 17.18172264099121 26.8974723815918 L 17.17605209350586 26.89851188659668 C 15.79569721221924 27.15172576904297 8.929088592529297 27.96487808227539 5.589025974273682 28.35482025146484 Z"/><path class="d" d="M 16.9476432800293 1.000001907348633 C 12.24040222167969 1.000001907348633 7.904201507568359 2.198991775512695 4.737802505493164 4.37611198425293 C 1.391914367675781 6.676637649536133 -0.4447364807128906 9.920881271362305 -0.5756111145019531 13.7599458694458 C -0.48345947265625 15.40125274658203 0.0601654052734375 16.96329498291016 1.040512084960938 18.40313148498535 C 1.852062225341797 19.5950813293457 2.964191436767578 20.71174240112305 4.346012115478516 21.72212219238281 C 6.752080917358398 23.48142242431641 9.158271789550781 24.30853271484375 9.18132209777832 24.31635284423828 L 10.97862243652344 24.9218921661377 L 9.463621139526367 26.06282234191895 L 7.365486145019531 27.64290809631348 C 10.91875267028809 27.22357940673828 15.93697357177734 26.61746597290039 17.08584213256836 26.40671157836914 L 17.09717178344727 26.40463256835938 L 17.10855102539063 26.40282249450684 C 21.84262084960938 25.6467113494873 25.86037254333496 24.14773178100586 28.72744178771973 22.06794166564941 C 31.83640098571777 19.81269073486328 33.41278076171875 17.02105331420898 33.41278076171875 13.77059173583984 C 33.41278076171875 6.728862762451172 26.02655220031738 1.000001907348633 16.9476432800293 1.000001907348633 M 16.9476432800293 1.9073486328125e-06 C 26.5933723449707 1.9073486328125e-06 34.41278076171875 6.165302276611328 34.41278076171875 13.77059173583984 C 34.41278076171875 21.37588119506836 26.53320121765137 25.91022109985352 17.26627159118652 27.39030265808105 C 15.398681640625 27.73290252685547 3.816312789916992 29.06390190124512 3.816312789916992 29.06390190124512 L 8.862041473388672 25.26401138305664 C 8.862041473388672 25.26401138305664 -1.158176422119141 21.88800239562988 -1.57647705078125 13.77059173583984 C -1.302337646484375 4.882051467895508 7.301912307739258 1.9073486328125e-06 16.9476432800293 1.9073486328125e-06 Z"/></g><path class="a" d="M17,0" transform="translate(8.885 16.425)"/><g class="b" transform="translate(10.824 11.691)"><circle class="c" cx="1.721" cy="1.721" r="1.721"/><circle class="e" cx="1.721" cy="1.721" r="1.221"/></g><g class="b" transform="translate(16.848 11.691)"><circle class="c" cx="1.721" cy="1.721" r="1.721"/><circle class="e" cx="1.721" cy="1.721" r="1.221"/></g><g class="b" transform="translate(22.873 11.691)"><circle class="c" cx="1.721" cy="1.721" r="1.721"/><circle class="e" cx="1.721" cy="1.721" r="1.221"/></g></svg>